<!DOCTYPE svg PUBLIC "-//W3C//DTD SVG 1.1//EN" "http://www.w3.org/Graphics/SVG/1.1/DTD/svg11.dtd">
<!-- Uploaded to: SVG Repo, www.svgrepo.com, Transformed by: SVG Repo Mixer Tools -->
<svg width="64px" height="64px" viewBox="-19.77 0 78.751 78.751" xmlns="http://www.w3.org/2000/svg" fill="#000000">
<g id="SVGRepo_bgCarrier" stroke-width="0"/>
<g id="SVGRepo_tracerCarrier" stroke-linecap="round" stroke-linejoin="round"/>
<g id="SVGRepo_iconCarrier"> <g id="pin" transform="translate(-1487.623 -429.363)"> <path id="Path_273" data-name="Path 273" d="M1507.069,508.114l-5.1-29.758h10.5Z" fill="#cec3ad"/> <g id="Group_111" data-name="Group 111"> <path id="Path_274" data-name="Path 274" d="M1526.826,440.621a2.516,2.516,0,0,1-2.506,2.506h-34.2a2.512,2.512,0,0,1-2.5-2.506v-8.755a2.506,2.506,0,0,1,2.5-2.5h34.2a2.511,2.511,0,0,1,2.506,2.5Z" fill="#6ce063"/> </g> <g id="Group_112" data-name="Group 112"> <path id="Path_275" data-name="Path 275" d="M1526.826,476.018a2.511,2.511,0,0,1-2.506,2.506h-34.2a2.507,2.507,0,0,1-2.5-2.506v-8.752a2.514,2.514,0,0,1,2.5-2.508h34.2a2.519,2.519,0,0,1,2.506,2.508Z" fill="#6ce063"/> </g> <g id="Group_113" data-name="Group 113"> <path id="Path_276" data-name="Path 276" d="M1492.456,443.127a11.71,11.71,0,0,1,0,21.631h14.766V443.127Z" fill="#6ce063"/> <path id="Path_277" data-name="Path 277" d="M1514.829,453.948a11.779,11.779,0,0,1,7.158-10.821h-14.765v21.631h14.765A11.775,11.775,0,0,1,1514.829,453.948Z" fill="#4d913e"/> </g> </g> </g>
</svg>